<mxfile host="app.diagrams.net" modified="2024-05-02T10:30:22.969Z" agent="Mozilla/5.0 (Macintosh; Intel Mac OS X 10_15_7) AppleWebKit/537.36 (KHTML, like Gecko) Chrome/124.0.0.0 Safari/537.36" etag="oX39sApjwT8Dtruwl3dc" version="24.0.4" type="github">
  <diagram name="Page-1" id="PsGNTERkMVCFi3AL_M9v">
    <mxGraphModel dx="944" dy="769" grid="1" gridSize="10" guides="1" tooltips="1" connect="1" arrows="1" fold="1" page="1" pageScale="1" pageWidth="850" pageHeight="1100" math="0" shadow="0">
      <root>
        <mxCell id="0" />
        <mxCell id="1" parent="0" />
        <mxCell id="qxM-q3SZRUhKUbwGHISn-8" value="" style="whiteSpace=wrap;html=1;aspect=fixed;" vertex="1" parent="1">
          <mxGeometry x="360" y="80" width="320" height="320" as="geometry" />
        </mxCell>
        <mxCell id="qxM-q3SZRUhKUbwGHISn-1" value="Health4Everyone.AI&lt;div&gt;Robotics Maintenance Tool&lt;/div&gt;" style="text;html=1;align=center;verticalAlign=middle;resizable=0;points=[];autosize=1;strokeColor=none;fillColor=none;" vertex="1" parent="1">
          <mxGeometry x="40" y="20" width="170" height="40" as="geometry" />
        </mxCell>
        <mxCell id="qxM-q3SZRUhKUbwGHISn-4" style="edgeStyle=orthogonalEdgeStyle;rounded=0;orthogonalLoop=1;jettySize=auto;html=1;" edge="1" parent="1" source="qxM-q3SZRUhKUbwGHISn-2" target="qxM-q3SZRUhKUbwGHISn-3">
          <mxGeometry relative="1" as="geometry" />
        </mxCell>
        <mxCell id="qxM-q3SZRUhKUbwGHISn-2" value="Model Training" style="rounded=1;whiteSpace=wrap;html=1;fillColor=#f8cecc;strokeColor=#b85450;" vertex="1" parent="1">
          <mxGeometry x="60" y="120" width="120" height="60" as="geometry" />
        </mxCell>
        <mxCell id="qxM-q3SZRUhKUbwGHISn-7" style="edgeStyle=orthogonalEdgeStyle;rounded=0;orthogonalLoop=1;jettySize=auto;html=1;" edge="1" parent="1" source="qxM-q3SZRUhKUbwGHISn-3" target="qxM-q3SZRUhKUbwGHISn-6">
          <mxGeometry relative="1" as="geometry" />
        </mxCell>
        <mxCell id="qxM-q3SZRUhKUbwGHISn-3" value="Trained XGBoost Classifier" style="sketch=0;outlineConnect=0;fontColor=#232F3E;gradientColor=none;fillColor=#01A88D;strokeColor=none;dashed=0;verticalLabelPosition=bottom;verticalAlign=top;align=center;html=1;fontSize=12;fontStyle=0;aspect=fixed;pointerEvents=1;shape=mxgraph.aws4.sagemaker_model;" vertex="1" parent="1">
          <mxGeometry x="410" y="111" width="78" height="78" as="geometry" />
        </mxCell>
        <mxCell id="qxM-q3SZRUhKUbwGHISn-12" style="edgeStyle=orthogonalEdgeStyle;rounded=0;orthogonalLoop=1;jettySize=auto;html=1;" edge="1" parent="1" source="qxM-q3SZRUhKUbwGHISn-6" target="qxM-q3SZRUhKUbwGHISn-11">
          <mxGeometry relative="1" as="geometry" />
        </mxCell>
        <mxCell id="qxM-q3SZRUhKUbwGHISn-13" value="Staging or Production" style="edgeLabel;html=1;align=center;verticalAlign=middle;resizable=0;points=[];" vertex="1" connectable="0" parent="qxM-q3SZRUhKUbwGHISn-12">
          <mxGeometry x="-0.1333" y="2" relative="1" as="geometry">
            <mxPoint as="offset" />
          </mxGeometry>
        </mxCell>
        <mxCell id="qxM-q3SZRUhKUbwGHISn-6" value="MLFlow Experiments" style="rounded=1;whiteSpace=wrap;html=1;fillColor=#dae8fc;strokeColor=#6c8ebf;" vertex="1" parent="1">
          <mxGeometry x="530" y="120" width="120" height="60" as="geometry" />
        </mxCell>
        <mxCell id="qxM-q3SZRUhKUbwGHISn-10" value="Application Data Store" style="text;html=1;align=center;verticalAlign=middle;resizable=0;points=[];autosize=1;strokeColor=none;fillColor=none;" vertex="1" parent="1">
          <mxGeometry x="360" y="50" width="140" height="30" as="geometry" />
        </mxCell>
        <mxCell id="qxM-q3SZRUhKUbwGHISn-15" style="edgeStyle=orthogonalEdgeStyle;rounded=0;orthogonalLoop=1;jettySize=auto;html=1;" edge="1" parent="1" source="qxM-q3SZRUhKUbwGHISn-11" target="qxM-q3SZRUhKUbwGHISn-14">
          <mxGeometry relative="1" as="geometry" />
        </mxCell>
        <mxCell id="qxM-q3SZRUhKUbwGHISn-16" value="Pull Model" style="edgeLabel;html=1;align=center;verticalAlign=middle;resizable=0;points=[];" vertex="1" connectable="0" parent="qxM-q3SZRUhKUbwGHISn-15">
          <mxGeometry x="0.2118" y="1" relative="1" as="geometry">
            <mxPoint as="offset" />
          </mxGeometry>
        </mxCell>
        <mxCell id="qxM-q3SZRUhKUbwGHISn-11" value="MLFlow Registry" style="rounded=1;whiteSpace=wrap;html=1;fillColor=#dae8fc;strokeColor=#6c8ebf;" vertex="1" parent="1">
          <mxGeometry x="530" y="270" width="120" height="60" as="geometry" />
        </mxCell>
        <mxCell id="qxM-q3SZRUhKUbwGHISn-27" style="edgeStyle=orthogonalEdgeStyle;rounded=0;orthogonalLoop=1;jettySize=auto;html=1;" edge="1" parent="1" source="qxM-q3SZRUhKUbwGHISn-14" target="qxM-q3SZRUhKUbwGHISn-26">
          <mxGeometry relative="1" as="geometry" />
        </mxCell>
        <mxCell id="qxM-q3SZRUhKUbwGHISn-14" value="Inference Service" style="rounded=1;whiteSpace=wrap;html=1;fillColor=#d5e8d4;strokeColor=#82b366;" vertex="1" parent="1">
          <mxGeometry x="65" y="270" width="120" height="60" as="geometry" />
        </mxCell>
        <mxCell id="qxM-q3SZRUhKUbwGHISn-18" style="edgeStyle=orthogonalEdgeStyle;rounded=0;orthogonalLoop=1;jettySize=auto;html=1;" edge="1" parent="1" source="qxM-q3SZRUhKUbwGHISn-17" target="qxM-q3SZRUhKUbwGHISn-14">
          <mxGeometry relative="1" as="geometry" />
        </mxCell>
        <mxCell id="qxM-q3SZRUhKUbwGHISn-23" value="HTTP Request POST" style="edgeLabel;html=1;align=center;verticalAlign=middle;resizable=0;points=[];" vertex="1" connectable="0" parent="qxM-q3SZRUhKUbwGHISn-18">
          <mxGeometry x="0.0667" y="-2" relative="1" as="geometry">
            <mxPoint as="offset" />
          </mxGeometry>
        </mxCell>
        <mxCell id="qxM-q3SZRUhKUbwGHISn-19" style="edgeStyle=orthogonalEdgeStyle;rounded=0;orthogonalLoop=1;jettySize=auto;html=1;" edge="1" parent="1" source="qxM-q3SZRUhKUbwGHISn-17" target="qxM-q3SZRUhKUbwGHISn-2">
          <mxGeometry relative="1" as="geometry">
            <Array as="points">
              <mxPoint x="20" y="465" />
              <mxPoint x="20" y="200" />
              <mxPoint x="120" y="200" />
            </Array>
          </mxGeometry>
        </mxCell>
        <mxCell id="qxM-q3SZRUhKUbwGHISn-20" value="HTTP Request POST" style="edgeLabel;html=1;align=center;verticalAlign=middle;resizable=0;points=[];" vertex="1" connectable="0" parent="qxM-q3SZRUhKUbwGHISn-19">
          <mxGeometry x="0.264" relative="1" as="geometry">
            <mxPoint y="1" as="offset" />
          </mxGeometry>
        </mxCell>
        <mxCell id="qxM-q3SZRUhKUbwGHISn-17" value="Frontend" style="verticalLabelPosition=bottom;html=1;verticalAlign=top;align=center;strokeColor=none;fillColor=#00BEF2;shape=mxgraph.azure.computer;pointerEvents=1;" vertex="1" parent="1">
          <mxGeometry x="72.5" y="420" width="105" height="90" as="geometry" />
        </mxCell>
        <mxCell id="qxM-q3SZRUhKUbwGHISn-31" style="edgeStyle=orthogonalEdgeStyle;rounded=0;orthogonalLoop=1;jettySize=auto;html=1;" edge="1" parent="1" source="qxM-q3SZRUhKUbwGHISn-21" target="qxM-q3SZRUhKUbwGHISn-17">
          <mxGeometry relative="1" as="geometry">
            <Array as="points">
              <mxPoint x="80" y="590" />
            </Array>
          </mxGeometry>
        </mxCell>
        <mxCell id="qxM-q3SZRUhKUbwGHISn-21" value="AI Dev Team" style="shape=umlActor;verticalLabelPosition=bottom;verticalAlign=top;html=1;outlineConnect=0;" vertex="1" parent="1">
          <mxGeometry x="20" y="560" width="30" height="60" as="geometry" />
        </mxCell>
        <mxCell id="qxM-q3SZRUhKUbwGHISn-25" style="edgeStyle=orthogonalEdgeStyle;rounded=0;orthogonalLoop=1;jettySize=auto;html=1;" edge="1" parent="1" source="qxM-q3SZRUhKUbwGHISn-22" target="qxM-q3SZRUhKUbwGHISn-17">
          <mxGeometry relative="1" as="geometry">
            <Array as="points">
              <mxPoint x="160" y="590" />
            </Array>
          </mxGeometry>
        </mxCell>
        <mxCell id="qxM-q3SZRUhKUbwGHISn-22" value="Maintenance Team" style="shape=umlActor;verticalLabelPosition=bottom;verticalAlign=top;html=1;outlineConnect=0;" vertex="1" parent="1">
          <mxGeometry x="210" y="560" width="30" height="60" as="geometry" />
        </mxCell>
        <mxCell id="qxM-q3SZRUhKUbwGHISn-29" style="edgeStyle=orthogonalEdgeStyle;rounded=0;orthogonalLoop=1;jettySize=auto;html=1;" edge="1" parent="1" source="qxM-q3SZRUhKUbwGHISn-26" target="qxM-q3SZRUhKUbwGHISn-28">
          <mxGeometry relative="1" as="geometry" />
        </mxCell>
        <mxCell id="qxM-q3SZRUhKUbwGHISn-26" value="Inference Log" style="shape=note;whiteSpace=wrap;html=1;backgroundOutline=1;darkOpacity=0.05;" vertex="1" parent="1">
          <mxGeometry x="370" y="320" width="80" height="70" as="geometry" />
        </mxCell>
        <mxCell id="qxM-q3SZRUhKUbwGHISn-30" style="edgeStyle=orthogonalEdgeStyle;rounded=0;orthogonalLoop=1;jettySize=auto;html=1;" edge="1" parent="1" source="qxM-q3SZRUhKUbwGHISn-28" target="qxM-q3SZRUhKUbwGHISn-17">
          <mxGeometry relative="1" as="geometry" />
        </mxCell>
        <mxCell id="qxM-q3SZRUhKUbwGHISn-28" value="Production Monitoring Service" style="rounded=1;whiteSpace=wrap;html=1;fillColor=#e1d5e7;strokeColor=#9673a6;" vertex="1" parent="1">
          <mxGeometry x="365" y="432.5" width="90" height="65" as="geometry" />
        </mxCell>
      </root>
    </mxGraphModel>
  </diagram>
</mxfile>
